# xmcd
#
# Track frame offsets: 
#        150
#        16050
#        45361
#        60951
#        79572
#        98523
#        108379
#        129287
#        140247
#        152186
#        167156
#        177319
#        192043
#        206326
#        231959
#        253040
#        274574
#        293456
#        309811
#        324843
#
# Disc length: 4504 seconds
#
# Revision: 0
# Processed by: cddbd v1.5.2PL0 Copyright (c) Steve Scherf et al.
# Submitted via: ExactAudioCopy v0.95b3
#
DISCID=f5119614
DTITLE=Alexis Korner - A New generation Of Blues (1968)  FLAC
DYEAR=1900
DGENRE=
TTITLE0=Mary, Open The Door
TTITLE1=Little Bitty Gal Blues
TTITLE2=Baby Don't You Love Me
TTITLE3=Go Down Sunshine
TTITLE4=The Same For You
TTITLE5=I'm Tore Down
TTITLE6=In The Evening
TTITLE7=Something You Got
TTITLE8=New Worried Blues
TTITLE9=What's that Sound I Here
TTITLE10=A Flower
TTITLE11=Louisiana Blues
TTITLE12=Corrina, Corrina
TTITLE13=The Love You Save
TTITLE14=Operator
TTITLE15=Steal Away
TTITLE16=Go Down Sunshine
TTITLE17=Stump Blues
TTITLE18=Sweet Home Chicago
TTITLE19=Just The Blues
EXTD=
EXTT0=
EXTT1=
EXTT2=
EXTT3=
EXTT4=
EXTT5=
EXTT6=
EXTT7=
EXTT8=
EXTT9=
EXTT10=
EXTT11=
EXTT12=
EXTT13=
EXTT14=
EXTT15=
EXTT16=
EXTT17=
EXTT18=
EXTT19=
PLAYORDER=
